<svg xmlns="http://www.w3.org/2000/svg" data-name="Layer 1" viewBox="0 0 100 125" x="0px" y="0px" fill="white"><path d="M89.31,75.72,61.63,66.6V43.91h3.95a2.33,2.33,0,0,0,2.28-2.38V32.37A2.33,2.33,0,0,0,65.58,30H34.42a2.33,2.33,0,0,0-2.28,2.37v9.16a2.33,2.33,0,0,0,2.28,2.38h4v15L11.31,50A1,1,0,0,0,10,51V63.3a1,1,0,0,0,.69,1l78,25.7A1.06,1.06,0,0,0,89,90a1,1,0,0,0,.59-.19A1,1,0,0,0,90,89V76.67A1,1,0,0,0,89.31,75.72ZM34.42,41.91c-.15,0-.28-.18-.28-.38V32.37a.34.34,0,0,1,.28-.37H65.58a.33.33,0,0,1,.28.37v9.16c0,.2-.13.38-.28.38H61.63V38.48H38.38v3.43ZM55.68,62.29v-4h4v4Zm4,2v1.65l-5-1.65Zm-8.63-8V52.38h8.63v3.95Zm-10.62,0V52.38H49v3.95Zm3.95,2v2.56l-3.95-1.3V58.33Zm9.35-11.9v4H46.33v-4h7.35Zm-4.68-2H40.38v-4H49Zm-4.67,2v4H40.38v-4Zm2,11.9h7.35v4H48.57l-2.24-.74Zm9.35-7.95v-4h4v4Zm-4.68-6v-4h8.63v4ZM88,87.62l-76-25V52.34l76,25Z"/><path d="M48.24,28.63a1,1,0,0,0,.33.06,1,1,0,0,0,1-.67,14.72,14.72,0,0,1,3.15-5.13c2-2.36,3.95-4.58,3.74-11.92a1,1,0,0,0-1-1,1,1,0,0,0-1,1c.19,6.56-1.41,8.41-3.25,10.56a16.55,16.55,0,0,0-3.53,5.76A1,1,0,0,0,48.24,28.63Z"/><path d="M57.34,26.23a1,1,0,0,0,.33.06,1,1,0,0,0,.95-.67,10,10,0,0,1,2.19-3.56c1.42-1.65,2.89-3.35,2.74-8.69a1,1,0,0,0-1-1,1,1,0,0,0-1,1c.12,4.56-.92,5.78-2.25,7.32A12,12,0,0,0,56.73,25,1,1,0,0,0,57.34,26.23Z"/><path d="M41.11,26.23a1,1,0,0,0,.33.06,1,1,0,0,0,1-.67,10,10,0,0,1,2.19-3.56c1.42-1.65,2.89-3.35,2.74-8.69a1,1,0,0,0-2,.06c.13,4.56-.92,5.78-2.25,7.32A12.1,12.1,0,0,0,40.5,25,1,1,0,0,0,41.11,26.23Z"/></svg>